<svg xmlns="http://www.w3.org/2000/svg" width="53.274" height="56.813"><path fill="#1e88e5" d="M.255 32.144 1.608 54.16c.088 1.42 1.079 2.401 2.5 2.5 3.688.254 7.377.193 11.055-.184 1.24-.128 2.644-1.047 2.5-2.5a639.153 639.153 0 0 1-1.881-23.356c-.08-1.272-1.084-2.605-2.5-2.5L2.5 28.92c-1.347.1-2.5 1.078-2.5 2.5 0 1.276 1.146 2.6 2.5 2.5l10.782-.801-2.5-2.5a639.153 639.153 0 0 0 1.88 23.356l2.5-2.5a64.592 64.592 0 0 1-11.054.184l2.5 2.5c-.45-7.339-.902-14.677-1.353-22.016-.083-1.348-1.09-2.5-2.5-2.5-1.29 0-2.583 1.146-2.5 2.5ZM17.203 20.035l1.353 34.035c.058 1.46 1.106 2.352 2.5 2.5 3.929.419 7.821.244 11.72-.373 1.012-.16 1.899-1.412 1.835-2.411a1509.155 1509.155 0 0 1-1.882-36.107c-.049-1.233-1.11-2.66-2.5-2.5l-10.781 1.239c-1.342.154-2.5 1.038-2.5 2.5 0 1.231 1.15 2.655 2.5 2.5l10.781-1.24-2.5-2.5c.483 12.044 1.11 24.08 1.882 36.108l1.835-2.41c-3.436.543-6.935.562-10.39.194l2.5 2.5-1.353-34.035c-.128-3.207-5.128-3.223-5 0ZM35.864 5.79l1.353 48.175c.028.99.75 2.247 1.836 2.411 4.168.628 8.263.52 12.384-.403 1.024-.23 1.883-1.359 1.835-2.41A3005.319 3005.319 0 0 1 51.39 2.455C51.34.698 49.84-.218 48.226.045L37.444 1.797c-1.333.217-2.076 1.874-1.746 3.075.39 1.418 1.738 1.964 3.076 1.746l10.781-1.753-3.164-2.41c.482 17.04 1.109 34.077 1.88 51.107l1.836-2.41c-3.184.713-6.49.89-9.725.402l1.835 2.41L40.864 5.79c-.09-3.21-5.09-3.224-5 0Z"/></svg>